<svg width="228" height="224" viewBox="0 0 228 224" fill="none" xmlns="http://www.w3.org/2000/svg">
<path d="M16.7799 176.26C49.9941 231.174 99.9241 236.572 154.885 203.41C209.843 170.223 248.982 111.014 215.768 56.1002C182.554 1.18632 111.104 -16.421 56.1456 16.7663C1.18728 49.9537 -16.4343 121.346 16.7799 176.26Z" fill="white"/>
<path d="M135.392 141.99C135.392 114.928 156.11 96.0877 180.606 96.0877C205.103 96.0877 215.926 110.258 215.926 122.573C215.926 128.907 212.564 132.65 207.536 134.889L166.26 153.729C171.128 163.997 179.709 169.979 190.725 169.979C192.87 169.979 194.888 169.691 196.809 169.275C226.301 136.712 239.494 95.32 215.766 56.1031C182.495 1.18026 111.023 -16.413 56.0424 16.7582C25.5259 35.1831 6.53713 65.3795 1.34965 98.0069C1.47773 98.0069 1.60582 97.9429 1.7339 97.9429H34.8121C37.0536 97.9429 38.5586 99.2544 38.5586 101.11V101.845C38.5586 106.324 29.7847 107.059 32.9549 116.4L47.9089 160.255L65.2966 102.229C66.0331 99.9902 67.1538 98.6787 69.3953 98.6787L79.6743 98.4867C82.1079 98.4867 83.2287 99.6063 83.9651 101.845L100.969 160.063L115.346 118.831C119.253 107.443 107.885 106.516 107.885 101.845V101.11C107.885 99.2544 109.55 97.9429 111.632 97.9429H134.239C136.48 97.9429 137.793 99.0625 137.793 100.918V101.654C137.793 106.516 130.492 107.635 127.514 116.016L103.402 182.998C102.281 186.165 100.776 187.476 97.4142 187.476H91.266C88.0959 187.476 86.0465 186.165 85.1179 182.998L67.9224 127.755L50.5667 182.998C49.6381 186.165 47.7488 187.476 44.5787 187.476H40.2878C36.9255 187.476 35.4205 186.165 34.1397 182.998L6.85735 116.016C5.03212 111.474 2.34231 108.947 0.388999 106.74C-1.53229 130.25 3.62317 154.529 16.752 176.249C49.9903 231.172 99.9439 236.577 154.925 203.406C162.13 199.056 169.046 194.258 175.579 189.076C152.107 186.773 135.52 168.764 135.52 141.926L135.392 141.99Z" fill="#C3BC0E"/>
<path d="M191.708 124.361C191.708 117.638 186.682 104.386 176.598 104.386C166.515 104.386 160.721 115.046 160.721 129.227C160.721 135.021 161.265 140.431 162.577 145.296L186.842 133.164C190.011 131.499 191.708 128.298 191.708 124.393V124.361Z" fill="#C3BC0E"/>
</svg>
