<svg width="421" height="414" viewBox="0 0 421 414" fill="none" xmlns="http://www.w3.org/2000/svg">
<path d="M199.909 242.7C152.809 164.7 161.209 68.7002 213.909 0.700195C176.209 0.700195 138.109 10.7002 103.509 31.6002C2.20866 92.8002 -30.2913 224.4 30.9087 325.7C92.1087 427 184.109 436.9 285.309 375.8C306.909 362.7 327.209 347.5 345.209 330.5C288.309 333.5 238.109 305.8 199.909 242.7Z" fill="url(#paint0_linear_6292_526)"/>
<path d="M397.509 104.1C357.309 37.4002 286.509 0.600154 213.909 0.700154C161.309 68.7002 152.809 164.7 199.909 242.7C238.109 305.9 288.309 333.5 345.209 330.5C411.309 268.2 445.709 183.7 397.509 104.1Z" fill="url(#paint1_linear_6292_526)"/>
<g style="mix-blend-mode:plus-lighter" opacity="0.31">
<path d="M397.509 104.1C357.309 37.4002 286.509 0.600154 213.909 0.700154C161.309 68.7002 152.809 164.7 199.909 242.7C238.109 305.9 288.309 333.5 345.209 330.5C411.309 268.2 445.709 183.7 397.509 104.1Z" fill="url(#paint2_linear_6292_526)"/>
</g>
<path d="M107.009 326.1C121.409 332.8 138.709 326.5 145.409 312L92.909 287.6C86.209 302.1 92.509 319.4 107.009 326.1ZM222.209 283.8L252.609 218.2C271.309 177.9 265.509 134.3 232.009 107.9L236.109 99.0002C241.109 88.1002 236.409 75.2002 225.509 70.2002C214.609 65.1002 201.709 69.9002 196.709 80.8002L192.609 89.7002C150.909 81.2002 113.809 104.9 95.109 145.3L64.709 210.9L26.309 225L20.209 238.1L230.209 335.4L236.309 322.3L222.209 283.8ZM189.909 284.8L84.909 236.1L121.409 157.3C136.509 124.7 168.609 107.4 201.309 122.6C234.009 137.7 241.509 173.4 226.409 206L189.909 284.8Z" fill="black"/>
<path d="M301.609 246.1H279.109V126H324.709C336.409 126 345.309 129.3 351.509 136C357.709 142.7 360.809 151.7 360.809 163.2C360.809 172 358.809 179.5 354.709 185.5C350.609 191.5 344.809 195.3 337.209 196.9L362.809 246.1H338.009L315.109 199.5H301.509V246.1H301.609ZM320.009 181.9C326.109 181.9 330.409 180.7 333.109 178.2C335.709 175.7 337.109 171.8 337.109 166.4V159.8C337.109 154.4 335.809 150.4 333.109 148C330.509 145.5 326.109 144.3 320.009 144.3H301.609V181.9H320.009Z" fill="white"/>
<path d="M183.259 247V228.13H208.759V147.21H183.259V128.34H259.759V147.21H234.259V228.13H259.759V247H183.259Z" fill="white"/>
<defs>
<linearGradient id="paint0_linear_6292_526" x1="359.22" y1="39.8092" x2="39.2205" y2="363.809" gradientUnits="userSpaceOnUse">
<stop stop-color="#E93068"/>
<stop offset="1" stop-color="#FA2EE8"/>
</linearGradient>
<linearGradient id="paint1_linear_6292_526" x1="381.868" y1="62.1766" x2="61.8678" y2="386.177" gradientUnits="userSpaceOnUse">
<stop stop-color="#E93068"/>
<stop offset="1" stop-color="#FA2EE8"/>
</linearGradient>
<linearGradient id="paint2_linear_6292_526" x1="169.017" y1="165.758" x2="589.073" y2="165.758" gradientUnits="userSpaceOnUse">
<stop stop-color="#E93068"/>
<stop offset="1" stop-color="#FA2EE8"/>
</linearGradient>
</defs>
</svg>
