<svg width="46" height="46" viewBox="0 0 46 46" fill="none" xmlns="http://www.w3.org/2000/svg">
<g clip-path="url(#clip0_5920_2073)">
<path fill-rule="evenodd" clip-rule="evenodd" d="M45.4544 7.09522C45.7214 10.3813 46 15.5861 46 23C46 30.4139 45.7214 35.6187 45.4544 38.9048C45.1675 42.4368 42.4368 45.1675 38.9047 45.4545C35.6187 45.7215 30.4139 46 23 46C15.5861 46 10.3813 45.7215 7.0952 45.4545C3.5632 45.1675 0.832501 42.4368 0.545501 38.9048C0.278602 35.6187 -3.241e-07 30.4139 0 23C3.24e-07 15.5861 0.278602 10.3813 0.545602 7.0952C0.832502 3.56317 3.5632 0.832499 7.0952 0.545529C10.3813 0.278539 15.5861 -2.32406e-06 23 0C30.4139 3.24086e-07 35.6187 0.278551 38.9048 0.545541C42.4368 0.832511 45.1675 3.56318 45.4544 7.09522ZM42 23C42 15.6859 41.7252 10.5896 41.4676 7.41914C41.3393 5.84058 40.1594 4.66066 38.5808 4.5324C35.4105 4.27481 30.3141 4 23 4C15.686 4 10.5896 4.2748 7.4192 4.53239C5.8406 4.66065 4.6607 5.84056 4.5324 7.41913C4.2748 10.5895 4 15.6859 4 23C4 30.3141 4.2748 35.4105 4.5324 38.5809C4.6607 40.1594 5.8406 41.3394 7.4191 41.4676C10.5896 41.7252 15.6859 42 23 42C30.3141 42 35.4104 41.7252 38.5808 41.4676C40.1594 41.3394 41.3393 40.1594 41.4676 38.5809C41.7252 35.4105 42 30.3141 42 23Z" fill="white"/>
</g>
<path fill-rule="evenodd" clip-rule="evenodd" d="M36.0089 26.4636C37.0576 27.5123 37.5377 28.9858 37.5377 30.6812C37.5377 32.3769 37.0576 33.8503 36.0089 34.8989C34.9602 35.9477 33.4867 36.4279 31.7912 36.4279C30.0957 36.4279 28.6221 35.9477 27.5735 34.8989C26.5248 33.8503 26.0447 32.3769 26.0447 30.6812C26.0447 28.9858 26.5248 27.5123 27.5735 26.4636C27.9619 26.0752 28.4086 25.7647 28.9033 25.5278C28.39 23.7778 28.1001 22.8119 27.731 21.9056C27.4318 21.1707 27.0757 20.4652 26.477 19.4053C25.4825 20.1484 24.2053 20.493 22.7689 20.493C21.3322 20.493 20.0549 20.1483 19.0605 19.4051C18.4614 20.4654 18.1052 21.1711 17.8059 21.9063C17.437 22.8124 17.1472 23.7783 16.634 25.5276C17.1289 25.7646 17.5758 26.0751 17.9643 26.4636C19.013 27.5123 19.4931 28.9858 19.4931 30.6812C19.4931 32.3769 19.013 33.8503 17.9643 34.8989C16.9156 35.9477 15.4421 36.4279 13.7467 36.4279C12.051 36.4279 10.5775 35.9477 9.52897 34.8989C8.48019 33.8503 8 32.3769 8 30.6812C8 28.9858 8.48019 27.5123 9.52897 26.4636C10.5282 25.4642 11.9135 24.9812 13.5089 24.938C14.0655 23.0372 14.417 21.8375 14.8748 20.713C15.3892 19.4497 16.0278 18.3008 17.1723 16.3463C17.1748 16.342 17.1774 16.3378 17.1799 16.3335C17.0739 15.833 17.0224 15.3017 17.0224 14.7465C17.0224 13.051 17.5025 11.5775 18.5512 10.5288C19.5999 9.48012 21.0734 9 22.7689 9C24.4644 9 25.9379 9.48012 26.9866 10.5288C28.0353 11.5775 28.5154 13.051 28.5154 14.7465C28.5154 15.3019 28.4639 15.8335 28.3577 16.3341C28.3595 16.3371 28.3613 16.3402 28.3631 16.3432C29.5084 18.2991 30.1475 19.4485 30.662 20.7121C31.12 21.8368 31.4716 23.0367 32.0284 24.938C33.624 24.9811 35.0094 25.4641 36.0089 26.4636Z" fill="white"/>
<defs>
<clipPath id="clip0_5920_2073">
<rect width="46" height="46" fill="white"/>
</clipPath>
</defs>
</svg>
