<?xml version="1.0" encoding="utf-8"?>
<!-- Generator: Adobe Illustrator 26.5.0, SVG Export Plug-In . SVG Version: 6.00 Build 0)  -->
<svg version="1.1" id="Ebene_1" xmlns="http://www.w3.org/2000/svg" xmlns:xlink="http://www.w3.org/1999/xlink" x="0px" y="0px"
	 viewBox="0 0 453 462" enable-background="new 0 0 453 462" xml:space="preserve">
<g>
	<g>
		
			<linearGradient id="SVGID_1_" gradientUnits="userSpaceOnUse" x1="375.7031" y1="38.7793" x2="55.703" y2="-285.2207" gradientTransform="matrix(1 0 0 -1 0 102.9797)">
			<stop  offset="0" style="stop-color:#E93068"/>
			<stop  offset="1" style="stop-color:#FA2EE8"/>
		</linearGradient>
		<path fill="url(#SVGID_1_)" d="M216.4,267.1c-47.1-78-38.7-174,14-242c-37.7,0-75.8,10-110.4,30.9
			C18.7,117.2-13.8,248.8,47.4,350.1s153.2,111.2,254.4,50.1c21.6-13.1,41.9-28.3,59.9-45.3C304.8,357.9,254.6,330.2,216.4,267.1z"
			/>
		
			<linearGradient id="SVGID_00000094577367994943976230000002039049432144825497_" gradientUnits="userSpaceOnUse" x1="398.3503" y1="16.4118" x2="78.3502" y2="-307.5882" gradientTransform="matrix(1 0 0 -1 0 102.9797)">
			<stop  offset="0" style="stop-color:#E93068"/>
			<stop  offset="1" style="stop-color:#FA2EE8"/>
		</linearGradient>
		<path fill="url(#SVGID_00000094577367994943976230000002039049432144825497_)" d="M414,128.5C373.8,61.8,303,25,230.4,25.1
			c-52.6,68-61.1,164-14,242c38.2,63.2,88.4,90.8,145.3,87.8C427.8,292.6,462.2,208.1,414,128.5z"/>
		
			<linearGradient id="SVGID_00000046323936884294239400000016851992103026450349_" gradientUnits="userSpaceOnUse" x1="185.5385" y1="570.1099" x2="605.5944" y2="570.1099" gradientTransform="matrix(1 0 0 1 0 -380)">
			<stop  offset="0" style="stop-color:#E93068"/>
			<stop  offset="1" style="stop-color:#FA2EE8"/>
		</linearGradient>
		<path opacity="0.31" fill="url(#SVGID_00000046323936884294239400000016851992103026450349_)" enable-background="new    " d="
			M414,128.5C373.8,61.8,303,25,230.4,25.1c-52.6,68-61.1,164-14,242c38.2,63.2,88.4,90.8,145.3,87.8
			C427.8,292.6,462.2,208.1,414,128.5z"/>
	</g>
</g>
<g>
	<g>
		<defs>
			
				<rect id="SVGID_00000178206568648929873890000016151004223653952185_" x="10.7" y="45.6" transform="matrix(0.4205 -0.9073 0.9073 0.4205 -92.0741 294.2359)" width="347.2" height="347.2"/>
		</defs>
		<clipPath id="SVGID_00000114044613467436850440000009448245632761454733_">
			<use xlink:href="#SVGID_00000178206568648929873890000016151004223653952185_"  overflow="visible"/>
		</clipPath>
		<g clip-path="url(#SVGID_00000114044613467436850440000009448245632761454733_)">
			<path d="M123.5,350.5c14.4,6.7,31.7,0.4,38.4-14.1L109.4,312C102.7,326.5,109,343.8,123.5,350.5z M238.7,308.2l30.4-65.6
				c18.7-40.3,12.9-83.9-20.6-110.3l4.1-8.9c5-10.9,0.3-23.8-10.6-28.8c-10.9-5.1-23.8-0.3-28.8,10.6l-4.1,8.9
				c-41.7-8.5-78.8,15.2-97.5,55.6l-30.4,65.6l-38.4,14.1l-6.1,13.1l210,97.3l6.1-13.1L238.7,308.2z M206.4,309.2l-105-48.7
				l36.5-78.8c15.1-32.6,47.2-49.9,79.9-34.7c32.7,15.1,40.2,50.8,25.1,83.4L206.4,309.2z"/>
		</g>
	</g>
</g>
<path fill="#FFFFFF" d="M252.8,171.2V269h-25.5v-97.8h-34.2v-20.9h93.8v20.9H252.8z"/>
<g>
	<path fill="#FFFFFF" d="M318.2,270.2h-22.5V150.1h45.6c11.7,0,20.6,3.3,26.8,10c6.2,6.7,9.3,15.7,9.3,27.2c0,8.8-2,16.3-6.1,22.3
		c-4.1,6-9.9,9.8-17.5,11.4l25.6,49.2h-24.8l-22.9-46.6h-13.6V270.2z M336.6,206c6.1,0,10.4-1.2,13.1-3.7c2.6-2.5,4-6.4,4-11.8v-6.6
		c0-5.4-1.3-9.4-4-11.8c-2.6-2.5-7-3.7-13.1-3.7h-18.4V206H336.6z"/>
</g>
</svg>
